<mxfile host="app.diagrams.net" modified="2024-01-12T15:42:19.924Z" agent="Mozilla/5.0 (Windows NT 10.0; Win64; x64) AppleWebKit/537.36 (KHTML, like Gecko) Chrome/120.0.0.0 Safari/537.36" etag="qfdL4yx_UVTuVbXNr373" version="22.1.18" type="device">
  <diagram name="Page-1" id="y7TI3dRYY_8wnKF0Nb9D">
    <mxGraphModel dx="3267" dy="908" grid="1" gridSize="10" guides="1" tooltips="1" connect="1" arrows="1" fold="1" page="1" pageScale="1" pageWidth="827" pageHeight="1169" math="0" shadow="0">
      <root>
        <mxCell id="0" />
        <mxCell id="1" parent="0" />
        <mxCell id="1uDWTnvnOivbHRdF_pwv-2" value="examen" style="swimlane;fontStyle=0;childLayout=stackLayout;horizontal=1;startSize=30;horizontalStack=0;resizeParent=1;resizeParentMax=0;resizeLast=0;collapsible=1;marginBottom=0;whiteSpace=wrap;html=1;" vertex="1" parent="1">
          <mxGeometry x="20" y="50" width="140" height="90" as="geometry" />
        </mxCell>
        <mxCell id="1uDWTnvnOivbHRdF_pwv-3" value="&lt;u&gt;&lt;b&gt;id_exam&lt;/b&gt;&lt;/u&gt;" style="text;strokeColor=none;fillColor=none;align=left;verticalAlign=middle;spacingLeft=4;spacingRight=4;overflow=hidden;points=[[0,0.5],[1,0.5]];portConstraint=eastwest;rotatable=0;whiteSpace=wrap;html=1;" vertex="1" parent="1uDWTnvnOivbHRdF_pwv-2">
          <mxGeometry y="30" width="140" height="30" as="geometry" />
        </mxCell>
        <mxCell id="1uDWTnvnOivbHRdF_pwv-4" value="nom_examen" style="text;strokeColor=none;fillColor=none;align=left;verticalAlign=middle;spacingLeft=4;spacingRight=4;overflow=hidden;points=[[0,0.5],[1,0.5]];portConstraint=eastwest;rotatable=0;whiteSpace=wrap;html=1;" vertex="1" parent="1uDWTnvnOivbHRdF_pwv-2">
          <mxGeometry y="60" width="140" height="30" as="geometry" />
        </mxCell>
        <mxCell id="1uDWTnvnOivbHRdF_pwv-6" value="bordereau" style="swimlane;fontStyle=0;childLayout=stackLayout;horizontal=1;startSize=30;horizontalStack=0;resizeParent=1;resizeParentMax=0;resizeLast=0;collapsible=1;marginBottom=0;whiteSpace=wrap;html=1;" vertex="1" parent="1">
          <mxGeometry x="-300" y="585" width="140" height="60" as="geometry" />
        </mxCell>
        <mxCell id="1uDWTnvnOivbHRdF_pwv-7" value="&lt;b&gt;&lt;u&gt;id_boredereau&lt;/u&gt;&lt;/b&gt;" style="text;strokeColor=none;fillColor=none;align=left;verticalAlign=middle;spacingLeft=4;spacingRight=4;overflow=hidden;points=[[0,0.5],[1,0.5]];portConstraint=eastwest;rotatable=0;whiteSpace=wrap;html=1;" vertex="1" parent="1uDWTnvnOivbHRdF_pwv-6">
          <mxGeometry y="30" width="140" height="30" as="geometry" />
        </mxCell>
        <mxCell id="1uDWTnvnOivbHRdF_pwv-10" value="villes_de_france" style="swimlane;fontStyle=0;childLayout=stackLayout;horizontal=1;startSize=30;horizontalStack=0;resizeParent=1;resizeParentMax=0;resizeLast=0;collapsible=1;marginBottom=0;whiteSpace=wrap;html=1;" vertex="1" parent="1">
          <mxGeometry x="850" y="810" width="140" height="90" as="geometry" />
        </mxCell>
        <mxCell id="1uDWTnvnOivbHRdF_pwv-11" value="&lt;u&gt;&lt;b&gt;code_insee&lt;/b&gt;&lt;/u&gt;" style="text;strokeColor=none;fillColor=none;align=left;verticalAlign=middle;spacingLeft=4;spacingRight=4;overflow=hidden;points=[[0,0.5],[1,0.5]];portConstraint=eastwest;rotatable=0;whiteSpace=wrap;html=1;" vertex="1" parent="1uDWTnvnOivbHRdF_pwv-10">
          <mxGeometry y="30" width="140" height="30" as="geometry" />
        </mxCell>
        <mxCell id="1uDWTnvnOivbHRdF_pwv-12" value="nom_ville" style="text;strokeColor=none;fillColor=none;align=left;verticalAlign=middle;spacingLeft=4;spacingRight=4;overflow=hidden;points=[[0,0.5],[1,0.5]];portConstraint=eastwest;rotatable=0;whiteSpace=wrap;html=1;" vertex="1" parent="1uDWTnvnOivbHRdF_pwv-10">
          <mxGeometry y="60" width="140" height="30" as="geometry" />
        </mxCell>
        <mxCell id="1uDWTnvnOivbHRdF_pwv-14" value="jury" style="swimlane;fontStyle=0;childLayout=stackLayout;horizontal=1;startSize=30;horizontalStack=0;resizeParent=1;resizeParentMax=0;resizeLast=0;collapsible=1;marginBottom=0;whiteSpace=wrap;html=1;" vertex="1" parent="1">
          <mxGeometry x="320" y="580" width="140" height="60" as="geometry" />
        </mxCell>
        <mxCell id="1uDWTnvnOivbHRdF_pwv-15" value="&lt;b&gt;&lt;u&gt;id_jury&lt;/u&gt;&lt;/b&gt;" style="text;strokeColor=none;fillColor=none;align=left;verticalAlign=middle;spacingLeft=4;spacingRight=4;overflow=hidden;points=[[0,0.5],[1,0.5]];portConstraint=eastwest;rotatable=0;whiteSpace=wrap;html=1;" vertex="1" parent="1uDWTnvnOivbHRdF_pwv-14">
          <mxGeometry y="30" width="140" height="30" as="geometry" />
        </mxCell>
        <mxCell id="1uDWTnvnOivbHRdF_pwv-18" value="com_redac" style="swimlane;fontStyle=0;childLayout=stackLayout;horizontal=1;startSize=30;horizontalStack=0;resizeParent=1;resizeParentMax=0;resizeLast=0;collapsible=1;marginBottom=0;whiteSpace=wrap;html=1;" vertex="1" parent="1">
          <mxGeometry x="320" y="450" width="140" height="90" as="geometry" />
        </mxCell>
        <mxCell id="1uDWTnvnOivbHRdF_pwv-19" value="&lt;b&gt;&lt;u&gt;id_com_redac&lt;/u&gt;&lt;/b&gt;" style="text;strokeColor=none;fillColor=none;align=left;verticalAlign=middle;spacingLeft=4;spacingRight=4;overflow=hidden;points=[[0,0.5],[1,0.5]];portConstraint=eastwest;rotatable=0;whiteSpace=wrap;html=1;" vertex="1" parent="1uDWTnvnOivbHRdF_pwv-18">
          <mxGeometry y="30" width="140" height="30" as="geometry" />
        </mxCell>
        <mxCell id="1uDWTnvnOivbHRdF_pwv-46" value="date_commi" style="text;strokeColor=none;fillColor=none;align=left;verticalAlign=middle;spacingLeft=4;spacingRight=4;overflow=hidden;points=[[0,0.5],[1,0.5]];portConstraint=eastwest;rotatable=0;whiteSpace=wrap;html=1;" vertex="1" parent="1uDWTnvnOivbHRdF_pwv-18">
          <mxGeometry y="60" width="140" height="30" as="geometry" />
        </mxCell>
        <mxCell id="1uDWTnvnOivbHRdF_pwv-26" value="dossier_inscription" style="swimlane;fontStyle=0;childLayout=stackLayout;horizontal=1;startSize=30;horizontalStack=0;resizeParent=1;resizeParentMax=0;resizeLast=0;collapsible=1;marginBottom=0;whiteSpace=wrap;html=1;" vertex="1" parent="1">
          <mxGeometry x="-280" y="50" width="140" height="150" as="geometry" />
        </mxCell>
        <mxCell id="1uDWTnvnOivbHRdF_pwv-27" value="&lt;b&gt;&lt;u&gt;numero_dossier&lt;/u&gt;&lt;/b&gt;" style="text;strokeColor=none;fillColor=none;align=left;verticalAlign=middle;spacingLeft=4;spacingRight=4;overflow=hidden;points=[[0,0.5],[1,0.5]];portConstraint=eastwest;rotatable=0;whiteSpace=wrap;html=1;" vertex="1" parent="1uDWTnvnOivbHRdF_pwv-26">
          <mxGeometry y="30" width="140" height="30" as="geometry" />
        </mxCell>
        <mxCell id="1uDWTnvnOivbHRdF_pwv-28" value="date_depot" style="text;strokeColor=none;fillColor=none;align=left;verticalAlign=middle;spacingLeft=4;spacingRight=4;overflow=hidden;points=[[0,0.5],[1,0.5]];portConstraint=eastwest;rotatable=0;whiteSpace=wrap;html=1;" vertex="1" parent="1uDWTnvnOivbHRdF_pwv-26">
          <mxGeometry y="60" width="140" height="30" as="geometry" />
        </mxCell>
        <mxCell id="1uDWTnvnOivbHRdF_pwv-29" value="#id_examen" style="text;strokeColor=none;fillColor=none;align=left;verticalAlign=middle;spacingLeft=4;spacingRight=4;overflow=hidden;points=[[0,0.5],[1,0.5]];portConstraint=eastwest;rotatable=0;whiteSpace=wrap;html=1;" vertex="1" parent="1uDWTnvnOivbHRdF_pwv-26">
          <mxGeometry y="90" width="140" height="30" as="geometry" />
        </mxCell>
        <mxCell id="1uDWTnvnOivbHRdF_pwv-30" value="#id_eleve" style="text;strokeColor=none;fillColor=none;align=left;verticalAlign=middle;spacingLeft=4;spacingRight=4;overflow=hidden;points=[[0,0.5],[1,0.5]];portConstraint=eastwest;rotatable=0;whiteSpace=wrap;html=1;" vertex="1" parent="1uDWTnvnOivbHRdF_pwv-26">
          <mxGeometry y="120" width="140" height="30" as="geometry" />
        </mxCell>
        <mxCell id="1uDWTnvnOivbHRdF_pwv-31" value="etablis_scolaire" style="swimlane;fontStyle=0;childLayout=stackLayout;horizontal=1;startSize=30;horizontalStack=0;resizeParent=1;resizeParentMax=0;resizeLast=0;collapsible=1;marginBottom=0;whiteSpace=wrap;html=1;" vertex="1" parent="1">
          <mxGeometry x="-600" y="780" width="140" height="150" as="geometry" />
        </mxCell>
        <mxCell id="1uDWTnvnOivbHRdF_pwv-32" value="&lt;b&gt;&lt;u&gt;code_etablis&lt;/u&gt;&lt;/b&gt;" style="text;strokeColor=none;fillColor=none;align=left;verticalAlign=middle;spacingLeft=4;spacingRight=4;overflow=hidden;points=[[0,0.5],[1,0.5]];portConstraint=eastwest;rotatable=0;whiteSpace=wrap;html=1;" vertex="1" parent="1uDWTnvnOivbHRdF_pwv-31">
          <mxGeometry y="30" width="140" height="30" as="geometry" />
        </mxCell>
        <mxCell id="1uDWTnvnOivbHRdF_pwv-33" value="nom_etablis" style="text;strokeColor=none;fillColor=none;align=left;verticalAlign=middle;spacingLeft=4;spacingRight=4;overflow=hidden;points=[[0,0.5],[1,0.5]];portConstraint=eastwest;rotatable=0;whiteSpace=wrap;html=1;" vertex="1" parent="1uDWTnvnOivbHRdF_pwv-31">
          <mxGeometry y="60" width="140" height="30" as="geometry" />
        </mxCell>
        <mxCell id="1uDWTnvnOivbHRdF_pwv-34" value="adresse_etablis" style="text;strokeColor=none;fillColor=none;align=left;verticalAlign=middle;spacingLeft=4;spacingRight=4;overflow=hidden;points=[[0,0.5],[1,0.5]];portConstraint=eastwest;rotatable=0;whiteSpace=wrap;html=1;" vertex="1" parent="1uDWTnvnOivbHRdF_pwv-31">
          <mxGeometry y="90" width="140" height="30" as="geometry" />
        </mxCell>
        <mxCell id="1uDWTnvnOivbHRdF_pwv-37" value="#code_insee" style="text;strokeColor=none;fillColor=none;align=left;verticalAlign=middle;spacingLeft=4;spacingRight=4;overflow=hidden;points=[[0,0.5],[1,0.5]];portConstraint=eastwest;rotatable=0;whiteSpace=wrap;html=1;" vertex="1" parent="1uDWTnvnOivbHRdF_pwv-31">
          <mxGeometry y="120" width="140" height="30" as="geometry" />
        </mxCell>
        <mxCell id="1uDWTnvnOivbHRdF_pwv-35" value="correcteur" style="swimlane;fontStyle=0;childLayout=stackLayout;horizontal=1;startSize=30;horizontalStack=0;resizeParent=1;resizeParentMax=0;resizeLast=0;collapsible=1;marginBottom=0;whiteSpace=wrap;html=1;" vertex="1" parent="1">
          <mxGeometry x="320" y="320" width="140" height="60" as="geometry" />
        </mxCell>
        <mxCell id="1uDWTnvnOivbHRdF_pwv-36" value="&lt;b&gt;&lt;u&gt;id_correcteur&lt;/u&gt;&lt;/b&gt;" style="text;strokeColor=none;fillColor=none;align=left;verticalAlign=middle;spacingLeft=4;spacingRight=4;overflow=hidden;points=[[0,0.5],[1,0.5]];portConstraint=eastwest;rotatable=0;whiteSpace=wrap;html=1;" vertex="1" parent="1uDWTnvnOivbHRdF_pwv-35">
          <mxGeometry y="30" width="140" height="30" as="geometry" />
        </mxCell>
        <mxCell id="1uDWTnvnOivbHRdF_pwv-38" value="epreuve&lt;br&gt;" style="swimlane;fontStyle=0;childLayout=stackLayout;horizontal=1;startSize=30;horizontalStack=0;resizeParent=1;resizeParentMax=0;resizeLast=0;collapsible=1;marginBottom=0;whiteSpace=wrap;html=1;" vertex="1" parent="1">
          <mxGeometry x="20" y="370" width="140" height="240" as="geometry" />
        </mxCell>
        <mxCell id="1uDWTnvnOivbHRdF_pwv-39" value="&lt;b&gt;&lt;u&gt;id_epreuve&lt;/u&gt;&lt;/b&gt;" style="text;strokeColor=none;fillColor=none;align=left;verticalAlign=middle;spacingLeft=4;spacingRight=4;overflow=hidden;points=[[0,0.5],[1,0.5]];portConstraint=eastwest;rotatable=0;whiteSpace=wrap;html=1;" vertex="1" parent="1uDWTnvnOivbHRdF_pwv-38">
          <mxGeometry y="30" width="140" height="30" as="geometry" />
        </mxCell>
        <mxCell id="1uDWTnvnOivbHRdF_pwv-40" value="discipline" style="text;strokeColor=none;fillColor=none;align=left;verticalAlign=middle;spacingLeft=4;spacingRight=4;overflow=hidden;points=[[0,0.5],[1,0.5]];portConstraint=eastwest;rotatable=0;whiteSpace=wrap;html=1;" vertex="1" parent="1uDWTnvnOivbHRdF_pwv-38">
          <mxGeometry y="60" width="140" height="30" as="geometry" />
        </mxCell>
        <mxCell id="1uDWTnvnOivbHRdF_pwv-41" value="coef" style="text;strokeColor=none;fillColor=none;align=left;verticalAlign=middle;spacingLeft=4;spacingRight=4;overflow=hidden;points=[[0,0.5],[1,0.5]];portConstraint=eastwest;rotatable=0;whiteSpace=wrap;html=1;" vertex="1" parent="1uDWTnvnOivbHRdF_pwv-38">
          <mxGeometry y="90" width="140" height="30" as="geometry" />
        </mxCell>
        <mxCell id="1uDWTnvnOivbHRdF_pwv-42" value="date_epreuve" style="text;strokeColor=none;fillColor=none;align=left;verticalAlign=middle;spacingLeft=4;spacingRight=4;overflow=hidden;points=[[0,0.5],[1,0.5]];portConstraint=eastwest;rotatable=0;whiteSpace=wrap;html=1;" vertex="1" parent="1uDWTnvnOivbHRdF_pwv-38">
          <mxGeometry y="120" width="140" height="30" as="geometry" />
        </mxCell>
        <mxCell id="1uDWTnvnOivbHRdF_pwv-45" value="#id_correcteur" style="text;strokeColor=none;fillColor=none;align=left;verticalAlign=middle;spacingLeft=4;spacingRight=4;overflow=hidden;points=[[0,0.5],[1,0.5]];portConstraint=eastwest;rotatable=0;whiteSpace=wrap;html=1;" vertex="1" parent="1uDWTnvnOivbHRdF_pwv-38">
          <mxGeometry y="150" width="140" height="30" as="geometry" />
        </mxCell>
        <mxCell id="1uDWTnvnOivbHRdF_pwv-44" value="#id_com_redac" style="text;strokeColor=none;fillColor=none;align=left;verticalAlign=middle;spacingLeft=4;spacingRight=4;overflow=hidden;points=[[0,0.5],[1,0.5]];portConstraint=eastwest;rotatable=0;whiteSpace=wrap;html=1;" vertex="1" parent="1uDWTnvnOivbHRdF_pwv-38">
          <mxGeometry y="180" width="140" height="30" as="geometry" />
        </mxCell>
        <mxCell id="1uDWTnvnOivbHRdF_pwv-43" value="#id_jury" style="text;strokeColor=none;fillColor=none;align=left;verticalAlign=middle;spacingLeft=4;spacingRight=4;overflow=hidden;points=[[0,0.5],[1,0.5]];portConstraint=eastwest;rotatable=0;whiteSpace=wrap;html=1;" vertex="1" parent="1uDWTnvnOivbHRdF_pwv-38">
          <mxGeometry y="210" width="140" height="30" as="geometry" />
        </mxCell>
        <mxCell id="1uDWTnvnOivbHRdF_pwv-47" value="enseignant" style="swimlane;fontStyle=0;childLayout=stackLayout;horizontal=1;startSize=30;horizontalStack=0;resizeParent=1;resizeParentMax=0;resizeLast=0;collapsible=1;marginBottom=0;whiteSpace=wrap;html=1;" vertex="1" parent="1">
          <mxGeometry x="850" y="390" width="140" height="210" as="geometry" />
        </mxCell>
        <mxCell id="1uDWTnvnOivbHRdF_pwv-48" value="&lt;u&gt;&lt;b&gt;numen&lt;/b&gt;&lt;/u&gt;" style="text;strokeColor=none;fillColor=none;align=left;verticalAlign=middle;spacingLeft=4;spacingRight=4;overflow=hidden;points=[[0,0.5],[1,0.5]];portConstraint=eastwest;rotatable=0;whiteSpace=wrap;html=1;" vertex="1" parent="1uDWTnvnOivbHRdF_pwv-47">
          <mxGeometry y="30" width="140" height="30" as="geometry" />
        </mxCell>
        <mxCell id="1uDWTnvnOivbHRdF_pwv-49" value="nom_ens" style="text;strokeColor=none;fillColor=none;align=left;verticalAlign=middle;spacingLeft=4;spacingRight=4;overflow=hidden;points=[[0,0.5],[1,0.5]];portConstraint=eastwest;rotatable=0;whiteSpace=wrap;html=1;" vertex="1" parent="1uDWTnvnOivbHRdF_pwv-47">
          <mxGeometry y="60" width="140" height="30" as="geometry" />
        </mxCell>
        <mxCell id="1uDWTnvnOivbHRdF_pwv-50" value="telephone_ens" style="text;strokeColor=none;fillColor=none;align=left;verticalAlign=middle;spacingLeft=4;spacingRight=4;overflow=hidden;points=[[0,0.5],[1,0.5]];portConstraint=eastwest;rotatable=0;whiteSpace=wrap;html=1;" vertex="1" parent="1uDWTnvnOivbHRdF_pwv-47">
          <mxGeometry y="90" width="140" height="30" as="geometry" />
        </mxCell>
        <mxCell id="1uDWTnvnOivbHRdF_pwv-51" value="adresse_ens" style="text;strokeColor=none;fillColor=none;align=left;verticalAlign=middle;spacingLeft=4;spacingRight=4;overflow=hidden;points=[[0,0.5],[1,0.5]];portConstraint=eastwest;rotatable=0;whiteSpace=wrap;html=1;" vertex="1" parent="1uDWTnvnOivbHRdF_pwv-47">
          <mxGeometry y="120" width="140" height="30" as="geometry" />
        </mxCell>
        <mxCell id="1uDWTnvnOivbHRdF_pwv-52" value="#code_insee" style="text;strokeColor=none;fillColor=none;align=left;verticalAlign=middle;spacingLeft=4;spacingRight=4;overflow=hidden;points=[[0,0.5],[1,0.5]];portConstraint=eastwest;rotatable=0;whiteSpace=wrap;html=1;" vertex="1" parent="1uDWTnvnOivbHRdF_pwv-47">
          <mxGeometry y="150" width="140" height="30" as="geometry" />
        </mxCell>
        <mxCell id="1uDWTnvnOivbHRdF_pwv-53" value="#code_etablissement" style="text;strokeColor=none;fillColor=none;align=left;verticalAlign=middle;spacingLeft=4;spacingRight=4;overflow=hidden;points=[[0,0.5],[1,0.5]];portConstraint=eastwest;rotatable=0;whiteSpace=wrap;html=1;" vertex="1" parent="1uDWTnvnOivbHRdF_pwv-47">
          <mxGeometry y="180" width="140" height="30" as="geometry" />
        </mxCell>
        <mxCell id="1uDWTnvnOivbHRdF_pwv-54" value="eleve" style="swimlane;fontStyle=0;childLayout=stackLayout;horizontal=1;startSize=30;horizontalStack=0;resizeParent=1;resizeParentMax=0;resizeLast=0;collapsible=1;marginBottom=0;whiteSpace=wrap;html=1;" vertex="1" parent="1">
          <mxGeometry x="-600" y="50" width="140" height="180" as="geometry" />
        </mxCell>
        <mxCell id="1uDWTnvnOivbHRdF_pwv-55" value="id_eleve" style="text;strokeColor=none;fillColor=none;align=left;verticalAlign=middle;spacingLeft=4;spacingRight=4;overflow=hidden;points=[[0,0.5],[1,0.5]];portConstraint=eastwest;rotatable=0;whiteSpace=wrap;html=1;" vertex="1" parent="1uDWTnvnOivbHRdF_pwv-54">
          <mxGeometry y="30" width="140" height="30" as="geometry" />
        </mxCell>
        <mxCell id="1uDWTnvnOivbHRdF_pwv-56" value="nom_eleve" style="text;strokeColor=none;fillColor=none;align=left;verticalAlign=middle;spacingLeft=4;spacingRight=4;overflow=hidden;points=[[0,0.5],[1,0.5]];portConstraint=eastwest;rotatable=0;whiteSpace=wrap;html=1;" vertex="1" parent="1uDWTnvnOivbHRdF_pwv-54">
          <mxGeometry y="60" width="140" height="30" as="geometry" />
        </mxCell>
        <mxCell id="1uDWTnvnOivbHRdF_pwv-57" value="prenom_eleve" style="text;strokeColor=none;fillColor=none;align=left;verticalAlign=middle;spacingLeft=4;spacingRight=4;overflow=hidden;points=[[0,0.5],[1,0.5]];portConstraint=eastwest;rotatable=0;whiteSpace=wrap;html=1;" vertex="1" parent="1uDWTnvnOivbHRdF_pwv-54">
          <mxGeometry y="90" width="140" height="30" as="geometry" />
        </mxCell>
        <mxCell id="1uDWTnvnOivbHRdF_pwv-58" value="date_naissance" style="text;strokeColor=none;fillColor=none;align=left;verticalAlign=middle;spacingLeft=4;spacingRight=4;overflow=hidden;points=[[0,0.5],[1,0.5]];portConstraint=eastwest;rotatable=0;whiteSpace=wrap;html=1;" vertex="1" parent="1uDWTnvnOivbHRdF_pwv-54">
          <mxGeometry y="120" width="140" height="30" as="geometry" />
        </mxCell>
        <mxCell id="1uDWTnvnOivbHRdF_pwv-59" value="#code_etablissement" style="text;strokeColor=none;fillColor=none;align=left;verticalAlign=middle;spacingLeft=4;spacingRight=4;overflow=hidden;points=[[0,0.5],[1,0.5]];portConstraint=eastwest;rotatable=0;whiteSpace=wrap;html=1;" vertex="1" parent="1uDWTnvnOivbHRdF_pwv-54">
          <mxGeometry y="150" width="140" height="30" as="geometry" />
        </mxCell>
        <mxCell id="1uDWTnvnOivbHRdF_pwv-60" value="note" style="swimlane;fontStyle=0;childLayout=stackLayout;horizontal=1;startSize=30;horizontalStack=0;resizeParent=1;resizeParentMax=0;resizeLast=0;collapsible=1;marginBottom=0;whiteSpace=wrap;html=1;" vertex="1" parent="1">
          <mxGeometry x="-290" y="320" width="140" height="180" as="geometry" />
        </mxCell>
        <mxCell id="1uDWTnvnOivbHRdF_pwv-61" value="&lt;b&gt;&lt;u&gt;id_note&lt;/u&gt;&lt;/b&gt;" style="text;strokeColor=none;fillColor=none;align=left;verticalAlign=middle;spacingLeft=4;spacingRight=4;overflow=hidden;points=[[0,0.5],[1,0.5]];portConstraint=eastwest;rotatable=0;whiteSpace=wrap;html=1;" vertex="1" parent="1uDWTnvnOivbHRdF_pwv-60">
          <mxGeometry y="30" width="140" height="30" as="geometry" />
        </mxCell>
        <mxCell id="1uDWTnvnOivbHRdF_pwv-62" value="note" style="text;strokeColor=none;fillColor=none;align=left;verticalAlign=middle;spacingLeft=4;spacingRight=4;overflow=hidden;points=[[0,0.5],[1,0.5]];portConstraint=eastwest;rotatable=0;whiteSpace=wrap;html=1;" vertex="1" parent="1uDWTnvnOivbHRdF_pwv-60">
          <mxGeometry y="60" width="140" height="30" as="geometry" />
        </mxCell>
        <mxCell id="1uDWTnvnOivbHRdF_pwv-65" value="#id_eleve" style="text;strokeColor=none;fillColor=none;align=left;verticalAlign=middle;spacingLeft=4;spacingRight=4;overflow=hidden;points=[[0,0.5],[1,0.5]];portConstraint=eastwest;rotatable=0;whiteSpace=wrap;html=1;" vertex="1" parent="1uDWTnvnOivbHRdF_pwv-60">
          <mxGeometry y="90" width="140" height="30" as="geometry" />
        </mxCell>
        <mxCell id="1uDWTnvnOivbHRdF_pwv-63" value="#id_bordereau" style="text;strokeColor=none;fillColor=none;align=left;verticalAlign=middle;spacingLeft=4;spacingRight=4;overflow=hidden;points=[[0,0.5],[1,0.5]];portConstraint=eastwest;rotatable=0;whiteSpace=wrap;html=1;" vertex="1" parent="1uDWTnvnOivbHRdF_pwv-60">
          <mxGeometry y="120" width="140" height="30" as="geometry" />
        </mxCell>
        <mxCell id="1uDWTnvnOivbHRdF_pwv-64" value="#id_epreuve" style="text;strokeColor=none;fillColor=none;align=left;verticalAlign=middle;spacingLeft=4;spacingRight=4;overflow=hidden;points=[[0,0.5],[1,0.5]];portConstraint=eastwest;rotatable=0;whiteSpace=wrap;html=1;" vertex="1" parent="1uDWTnvnOivbHRdF_pwv-60">
          <mxGeometry y="150" width="140" height="30" as="geometry" />
        </mxCell>
        <mxCell id="1uDWTnvnOivbHRdF_pwv-88" style="edgeStyle=orthogonalEdgeStyle;rounded=0;orthogonalLoop=1;jettySize=auto;html=1;exitX=0.5;exitY=0;exitDx=0;exitDy=0;entryX=0.5;entryY=1;entryDx=0;entryDy=0;entryPerimeter=0;" edge="1" parent="1" source="1uDWTnvnOivbHRdF_pwv-67" target="1uDWTnvnOivbHRdF_pwv-4">
          <mxGeometry relative="1" as="geometry">
            <mxPoint x="90" y="180" as="targetPoint" />
          </mxGeometry>
        </mxCell>
        <mxCell id="1uDWTnvnOivbHRdF_pwv-67" value="examen_epreuve" style="swimlane;fontStyle=0;childLayout=stackLayout;horizontal=1;startSize=30;horizontalStack=0;resizeParent=1;resizeParentMax=0;resizeLast=0;collapsible=1;marginBottom=0;whiteSpace=wrap;html=1;" vertex="1" parent="1">
          <mxGeometry x="20" y="220" width="140" height="90" as="geometry" />
        </mxCell>
        <mxCell id="1uDWTnvnOivbHRdF_pwv-68" value="&lt;u&gt;&lt;b&gt;#id_examen&lt;/b&gt;&lt;/u&gt;" style="text;strokeColor=none;fillColor=none;align=left;verticalAlign=middle;spacingLeft=4;spacingRight=4;overflow=hidden;points=[[0,0.5],[1,0.5]];portConstraint=eastwest;rotatable=0;whiteSpace=wrap;html=1;" vertex="1" parent="1uDWTnvnOivbHRdF_pwv-67">
          <mxGeometry y="30" width="140" height="30" as="geometry" />
        </mxCell>
        <mxCell id="1uDWTnvnOivbHRdF_pwv-69" value="&lt;b&gt;&lt;u&gt;#id_epreuve&lt;/u&gt;&lt;/b&gt;" style="text;strokeColor=none;fillColor=none;align=left;verticalAlign=middle;spacingLeft=4;spacingRight=4;overflow=hidden;points=[[0,0.5],[1,0.5]];portConstraint=eastwest;rotatable=0;whiteSpace=wrap;html=1;" vertex="1" parent="1uDWTnvnOivbHRdF_pwv-67">
          <mxGeometry y="60" width="140" height="30" as="geometry" />
        </mxCell>
        <mxCell id="1uDWTnvnOivbHRdF_pwv-71" value="convocation" style="swimlane;fontStyle=0;childLayout=stackLayout;horizontal=1;startSize=30;horizontalStack=0;resizeParent=1;resizeParentMax=0;resizeLast=0;collapsible=1;marginBottom=0;whiteSpace=wrap;html=1;" vertex="1" parent="1">
          <mxGeometry x="580" y="425" width="140" height="150" as="geometry" />
        </mxCell>
        <mxCell id="1uDWTnvnOivbHRdF_pwv-72" value="&lt;b&gt;&lt;u&gt;#numen&lt;/u&gt;&lt;/b&gt;" style="text;strokeColor=none;fillColor=none;align=left;verticalAlign=middle;spacingLeft=4;spacingRight=4;overflow=hidden;points=[[0,0.5],[1,0.5]];portConstraint=eastwest;rotatable=0;whiteSpace=wrap;html=1;" vertex="1" parent="1uDWTnvnOivbHRdF_pwv-71">
          <mxGeometry y="30" width="140" height="30" as="geometry" />
        </mxCell>
        <mxCell id="1uDWTnvnOivbHRdF_pwv-73" value="&lt;b&gt;&lt;u&gt;#id_correcteur&lt;/u&gt;&lt;/b&gt;" style="text;strokeColor=none;fillColor=none;align=left;verticalAlign=middle;spacingLeft=4;spacingRight=4;overflow=hidden;points=[[0,0.5],[1,0.5]];portConstraint=eastwest;rotatable=0;whiteSpace=wrap;html=1;" vertex="1" parent="1uDWTnvnOivbHRdF_pwv-71">
          <mxGeometry y="60" width="140" height="30" as="geometry" />
        </mxCell>
        <mxCell id="1uDWTnvnOivbHRdF_pwv-74" value="&lt;b&gt;&lt;u&gt;#id_com_redac&lt;/u&gt;&lt;/b&gt;" style="text;strokeColor=none;fillColor=none;align=left;verticalAlign=middle;spacingLeft=4;spacingRight=4;overflow=hidden;points=[[0,0.5],[1,0.5]];portConstraint=eastwest;rotatable=0;whiteSpace=wrap;html=1;" vertex="1" parent="1uDWTnvnOivbHRdF_pwv-71">
          <mxGeometry y="90" width="140" height="30" as="geometry" />
        </mxCell>
        <mxCell id="1uDWTnvnOivbHRdF_pwv-75" value="&lt;b&gt;&lt;u&gt;#id_jury&lt;br&gt;&lt;/u&gt;&lt;/b&gt;" style="text;strokeColor=none;fillColor=none;align=left;verticalAlign=middle;spacingLeft=4;spacingRight=4;overflow=hidden;points=[[0,0.5],[1,0.5]];portConstraint=eastwest;rotatable=0;whiteSpace=wrap;html=1;" vertex="1" parent="1uDWTnvnOivbHRdF_pwv-71">
          <mxGeometry y="120" width="140" height="30" as="geometry" />
        </mxCell>
        <mxCell id="1uDWTnvnOivbHRdF_pwv-76" value="jury_examination" style="swimlane;fontStyle=0;childLayout=stackLayout;horizontal=1;startSize=30;horizontalStack=0;resizeParent=1;resizeParentMax=0;resizeLast=0;collapsible=1;marginBottom=0;whiteSpace=wrap;html=1;" vertex="1" parent="1">
          <mxGeometry x="20" y="670" width="140" height="90" as="geometry" />
        </mxCell>
        <mxCell id="1uDWTnvnOivbHRdF_pwv-77" value="&lt;b&gt;&lt;u&gt;#id_bordereau&lt;/u&gt;&lt;/b&gt;" style="text;strokeColor=none;fillColor=none;align=left;verticalAlign=middle;spacingLeft=4;spacingRight=4;overflow=hidden;points=[[0,0.5],[1,0.5]];portConstraint=eastwest;rotatable=0;whiteSpace=wrap;html=1;" vertex="1" parent="1uDWTnvnOivbHRdF_pwv-76">
          <mxGeometry y="30" width="140" height="30" as="geometry" />
        </mxCell>
        <mxCell id="1uDWTnvnOivbHRdF_pwv-78" value="&lt;b&gt;&lt;u&gt;#id_jury&lt;/u&gt;&lt;/b&gt;" style="text;strokeColor=none;fillColor=none;align=left;verticalAlign=middle;spacingLeft=4;spacingRight=4;overflow=hidden;points=[[0,0.5],[1,0.5]];portConstraint=eastwest;rotatable=0;whiteSpace=wrap;html=1;" vertex="1" parent="1uDWTnvnOivbHRdF_pwv-76">
          <mxGeometry y="60" width="140" height="30" as="geometry" />
        </mxCell>
        <mxCell id="1uDWTnvnOivbHRdF_pwv-91" value="" style="endArrow=classic;html=1;rounded=0;exitX=0.493;exitY=1.033;exitDx=0;exitDy=0;exitPerimeter=0;entryX=0.5;entryY=0;entryDx=0;entryDy=0;" edge="1" parent="1" source="1uDWTnvnOivbHRdF_pwv-69" target="1uDWTnvnOivbHRdF_pwv-38">
          <mxGeometry width="50" height="50" relative="1" as="geometry">
            <mxPoint x="390" y="390" as="sourcePoint" />
            <mxPoint x="440" y="340" as="targetPoint" />
          </mxGeometry>
        </mxCell>
        <mxCell id="1uDWTnvnOivbHRdF_pwv-98" style="edgeStyle=orthogonalEdgeStyle;rounded=0;orthogonalLoop=1;jettySize=auto;html=1;exitX=1;exitY=0.5;exitDx=0;exitDy=0;" edge="1" parent="1" source="1uDWTnvnOivbHRdF_pwv-29" target="1uDWTnvnOivbHRdF_pwv-3">
          <mxGeometry relative="1" as="geometry" />
        </mxCell>
        <mxCell id="1uDWTnvnOivbHRdF_pwv-99" style="edgeStyle=orthogonalEdgeStyle;rounded=0;orthogonalLoop=1;jettySize=auto;html=1;exitX=0;exitY=0.5;exitDx=0;exitDy=0;entryX=1;entryY=0.5;entryDx=0;entryDy=0;" edge="1" parent="1" source="1uDWTnvnOivbHRdF_pwv-30" target="1uDWTnvnOivbHRdF_pwv-55">
          <mxGeometry relative="1" as="geometry" />
        </mxCell>
        <mxCell id="1uDWTnvnOivbHRdF_pwv-100" style="edgeStyle=orthogonalEdgeStyle;rounded=0;orthogonalLoop=1;jettySize=auto;html=1;exitX=1;exitY=0.5;exitDx=0;exitDy=0;" edge="1" parent="1" source="1uDWTnvnOivbHRdF_pwv-68" target="1uDWTnvnOivbHRdF_pwv-3">
          <mxGeometry relative="1" as="geometry" />
        </mxCell>
        <mxCell id="1uDWTnvnOivbHRdF_pwv-101" style="edgeStyle=orthogonalEdgeStyle;rounded=0;orthogonalLoop=1;jettySize=auto;html=1;exitX=0;exitY=0.5;exitDx=0;exitDy=0;entryX=0;entryY=0.5;entryDx=0;entryDy=0;" edge="1" parent="1" source="1uDWTnvnOivbHRdF_pwv-69" target="1uDWTnvnOivbHRdF_pwv-39">
          <mxGeometry relative="1" as="geometry" />
        </mxCell>
        <mxCell id="1uDWTnvnOivbHRdF_pwv-102" style="edgeStyle=orthogonalEdgeStyle;rounded=0;orthogonalLoop=1;jettySize=auto;html=1;exitX=1;exitY=0.5;exitDx=0;exitDy=0;entryX=0;entryY=0.5;entryDx=0;entryDy=0;" edge="1" parent="1" source="1uDWTnvnOivbHRdF_pwv-45" target="1uDWTnvnOivbHRdF_pwv-36">
          <mxGeometry relative="1" as="geometry">
            <Array as="points">
              <mxPoint x="220" y="535" />
              <mxPoint x="220" y="365" />
            </Array>
          </mxGeometry>
        </mxCell>
        <mxCell id="1uDWTnvnOivbHRdF_pwv-103" style="edgeStyle=orthogonalEdgeStyle;rounded=0;orthogonalLoop=1;jettySize=auto;html=1;exitX=1;exitY=0.5;exitDx=0;exitDy=0;" edge="1" parent="1" source="1uDWTnvnOivbHRdF_pwv-44" target="1uDWTnvnOivbHRdF_pwv-19">
          <mxGeometry relative="1" as="geometry" />
        </mxCell>
        <mxCell id="1uDWTnvnOivbHRdF_pwv-104" style="edgeStyle=orthogonalEdgeStyle;rounded=0;orthogonalLoop=1;jettySize=auto;html=1;exitX=1;exitY=0.5;exitDx=0;exitDy=0;entryX=0;entryY=0.5;entryDx=0;entryDy=0;" edge="1" parent="1" source="1uDWTnvnOivbHRdF_pwv-43" target="1uDWTnvnOivbHRdF_pwv-15">
          <mxGeometry relative="1" as="geometry" />
        </mxCell>
        <mxCell id="1uDWTnvnOivbHRdF_pwv-105" style="edgeStyle=orthogonalEdgeStyle;rounded=0;orthogonalLoop=1;jettySize=auto;html=1;exitX=1;exitY=0.5;exitDx=0;exitDy=0;" edge="1" parent="1" source="1uDWTnvnOivbHRdF_pwv-72" target="1uDWTnvnOivbHRdF_pwv-48">
          <mxGeometry relative="1" as="geometry" />
        </mxCell>
        <mxCell id="1uDWTnvnOivbHRdF_pwv-106" style="edgeStyle=orthogonalEdgeStyle;rounded=0;orthogonalLoop=1;jettySize=auto;html=1;exitX=0;exitY=0.5;exitDx=0;exitDy=0;entryX=1;entryY=0.5;entryDx=0;entryDy=0;" edge="1" parent="1" source="1uDWTnvnOivbHRdF_pwv-73" target="1uDWTnvnOivbHRdF_pwv-36">
          <mxGeometry relative="1" as="geometry">
            <Array as="points">
              <mxPoint x="550" y="500" />
              <mxPoint x="550" y="365" />
            </Array>
          </mxGeometry>
        </mxCell>
        <mxCell id="1uDWTnvnOivbHRdF_pwv-107" style="edgeStyle=orthogonalEdgeStyle;rounded=0;orthogonalLoop=1;jettySize=auto;html=1;exitX=0;exitY=0.5;exitDx=0;exitDy=0;entryX=1;entryY=0.5;entryDx=0;entryDy=0;" edge="1" parent="1" source="1uDWTnvnOivbHRdF_pwv-74" target="1uDWTnvnOivbHRdF_pwv-19">
          <mxGeometry relative="1" as="geometry" />
        </mxCell>
        <mxCell id="1uDWTnvnOivbHRdF_pwv-108" style="edgeStyle=orthogonalEdgeStyle;rounded=0;orthogonalLoop=1;jettySize=auto;html=1;exitX=0;exitY=0.5;exitDx=0;exitDy=0;entryX=1;entryY=0.5;entryDx=0;entryDy=0;" edge="1" parent="1" source="1uDWTnvnOivbHRdF_pwv-75" target="1uDWTnvnOivbHRdF_pwv-15">
          <mxGeometry relative="1" as="geometry" />
        </mxCell>
        <mxCell id="1uDWTnvnOivbHRdF_pwv-109" style="edgeStyle=orthogonalEdgeStyle;rounded=0;orthogonalLoop=1;jettySize=auto;html=1;exitX=1;exitY=0.5;exitDx=0;exitDy=0;entryX=0;entryY=0.5;entryDx=0;entryDy=0;" edge="1" parent="1" source="1uDWTnvnOivbHRdF_pwv-78" target="1uDWTnvnOivbHRdF_pwv-15">
          <mxGeometry relative="1" as="geometry" />
        </mxCell>
        <mxCell id="1uDWTnvnOivbHRdF_pwv-110" style="edgeStyle=orthogonalEdgeStyle;rounded=0;orthogonalLoop=1;jettySize=auto;html=1;exitX=0;exitY=0.5;exitDx=0;exitDy=0;" edge="1" parent="1" source="1uDWTnvnOivbHRdF_pwv-77" target="1uDWTnvnOivbHRdF_pwv-7">
          <mxGeometry relative="1" as="geometry" />
        </mxCell>
        <mxCell id="1uDWTnvnOivbHRdF_pwv-111" style="edgeStyle=orthogonalEdgeStyle;rounded=0;orthogonalLoop=1;jettySize=auto;html=1;exitX=1;exitY=0.5;exitDx=0;exitDy=0;" edge="1" parent="1" source="1uDWTnvnOivbHRdF_pwv-52" target="1uDWTnvnOivbHRdF_pwv-11">
          <mxGeometry relative="1" as="geometry" />
        </mxCell>
        <mxCell id="1uDWTnvnOivbHRdF_pwv-112" style="edgeStyle=orthogonalEdgeStyle;rounded=0;orthogonalLoop=1;jettySize=auto;html=1;exitX=1;exitY=0.5;exitDx=0;exitDy=0;entryX=0;entryY=0.5;entryDx=0;entryDy=0;" edge="1" parent="1" source="1uDWTnvnOivbHRdF_pwv-37" target="1uDWTnvnOivbHRdF_pwv-11">
          <mxGeometry relative="1" as="geometry" />
        </mxCell>
        <mxCell id="1uDWTnvnOivbHRdF_pwv-113" style="edgeStyle=orthogonalEdgeStyle;rounded=0;orthogonalLoop=1;jettySize=auto;html=1;exitX=1;exitY=0.5;exitDx=0;exitDy=0;entryX=1;entryY=0.5;entryDx=0;entryDy=0;" edge="1" parent="1" source="1uDWTnvnOivbHRdF_pwv-59" target="1uDWTnvnOivbHRdF_pwv-32">
          <mxGeometry relative="1" as="geometry" />
        </mxCell>
        <mxCell id="1uDWTnvnOivbHRdF_pwv-114" style="edgeStyle=orthogonalEdgeStyle;rounded=0;orthogonalLoop=1;jettySize=auto;html=1;exitX=0;exitY=0.5;exitDx=0;exitDy=0;entryX=0;entryY=0.5;entryDx=0;entryDy=0;" edge="1" parent="1" source="1uDWTnvnOivbHRdF_pwv-63" target="1uDWTnvnOivbHRdF_pwv-7">
          <mxGeometry relative="1" as="geometry" />
        </mxCell>
        <mxCell id="1uDWTnvnOivbHRdF_pwv-115" style="edgeStyle=orthogonalEdgeStyle;rounded=0;orthogonalLoop=1;jettySize=auto;html=1;exitX=1;exitY=0.5;exitDx=0;exitDy=0;entryX=0;entryY=0.5;entryDx=0;entryDy=0;" edge="1" parent="1" source="1uDWTnvnOivbHRdF_pwv-64" target="1uDWTnvnOivbHRdF_pwv-39">
          <mxGeometry relative="1" as="geometry" />
        </mxCell>
        <mxCell id="1uDWTnvnOivbHRdF_pwv-116" style="edgeStyle=orthogonalEdgeStyle;rounded=0;orthogonalLoop=1;jettySize=auto;html=1;exitX=0;exitY=0.5;exitDx=0;exitDy=0;entryX=1;entryY=0.5;entryDx=0;entryDy=0;" edge="1" parent="1" source="1uDWTnvnOivbHRdF_pwv-65" target="1uDWTnvnOivbHRdF_pwv-55">
          <mxGeometry relative="1" as="geometry">
            <Array as="points">
              <mxPoint x="-370" y="425" />
              <mxPoint x="-370" y="95" />
            </Array>
          </mxGeometry>
        </mxCell>
        <mxCell id="1uDWTnvnOivbHRdF_pwv-117" style="edgeStyle=orthogonalEdgeStyle;rounded=0;orthogonalLoop=1;jettySize=auto;html=1;exitX=0;exitY=0.5;exitDx=0;exitDy=0;entryX=1;entryY=0.5;entryDx=0;entryDy=0;" edge="1" parent="1" source="1uDWTnvnOivbHRdF_pwv-53" target="1uDWTnvnOivbHRdF_pwv-32">
          <mxGeometry relative="1" as="geometry">
            <Array as="points">
              <mxPoint x="760" y="585" />
              <mxPoint x="760" y="825" />
            </Array>
          </mxGeometry>
        </mxCell>
      </root>
    </mxGraphModel>
  </diagram>
</mxfile>
